<svg width="770" height="109" viewBox="0 0 770 109" fill="none" xmlns="http://www.w3.org/2000/svg">
<g clip-path="url(#clip0_2155_30890)">
<path d="M229.384 108.923L214.32 92.5439C210.572 93.5109 206.715 93.9931 202.843 93.9786C195.359 94.0851 187.985 92.1644 181.503 88.42C175.192 84.74 170.004 79.4075 166.499 72.9971C162.887 66.12 161 58.4683 161 50.7002C161 42.9322 162.887 35.2804 166.499 28.4034C169.995 22.0018 175.186 16.6866 181.503 13.0406C188.016 9.43345 195.339 7.54102 202.784 7.54102C210.229 7.54102 217.552 9.43345 224.064 13.0406C230.373 16.6786 235.546 21.9972 239.009 28.4034C242.531 35.1809 244.395 42.6976 244.447 50.3356C244.499 57.9737 242.738 65.515 239.308 72.3398C236.074 78.5838 231.249 83.8629 225.32 87.6426L246.242 108.923L229.384 108.923ZM178.514 66.8398C180.69 71.2758 184.119 74.9756 188.378 77.4805C192.777 79.9978 197.776 81.2784 202.844 81.1866C207.854 81.2732 212.794 79.9919 217.13 77.4805C221.361 74.9603 224.768 71.2631 226.934 66.8398C229.257 61.7765 230.46 56.271 230.46 50.6999C230.46 45.1287 229.257 39.6232 226.934 34.5599C224.766 30.1378 221.36 26.4411 217.13 23.9199C212.793 21.4095 207.854 20.1283 202.844 20.2138C197.776 20.1231 192.778 21.4036 188.378 23.9199C184.12 26.4258 180.691 30.125 178.514 34.5599C176.191 39.6232 174.988 45.1287 174.988 50.6999C174.988 56.271 176.191 61.7765 178.514 66.8398Z" fill="white"/>
<path d="M406.142 72.9971C402.678 79.3314 397.387 84.4761 390.958 87.7618C384.302 91.2705 376.352 93.024 367.107 93.0225H338.893V8.61719H367.107C376.353 8.61719 384.303 10.3508 390.958 13.8179C397.379 17.0591 402.671 22.1635 406.142 28.4629C409.609 34.7603 411.342 42.1727 411.341 50.7002C411.341 59.2295 409.608 66.6618 406.142 72.9971ZM389.345 72.8184C394.763 67.5577 397.473 60.1849 397.474 50.7002C397.474 41.2159 394.764 33.8434 389.345 28.5826C383.923 23.3226 376.152 20.6924 366.031 20.6919H352.522V80.708H366.031C376.152 80.708 383.923 78.0781 389.345 72.8184H389.345Z" fill="white"/>
<path d="M433.578 8.61719L457.848 78.4366L482.237 8.61719H497.062L466.576 93.0225H449.12L418.755 8.61719H433.578Z" fill="#1FBCFF"/>
<path d="M507.701 2.28127C509.43 0.71668 511.708 -0.0999546 514.037 0.0097878C516.384 -0.0925204 518.678 0.722102 520.434 2.28127C521.231 3.00558 521.862 3.8931 522.285 4.88341C522.708 5.87373 522.913 6.94357 522.885 8.02007C522.92 9.08 522.719 10.1345 522.295 11.1065C521.871 12.0785 521.235 12.9436 520.434 13.6387C518.645 15.1284 516.363 15.896 514.037 15.7911C511.729 15.9033 509.464 15.1339 507.701 13.6387C506.915 12.9348 506.293 12.0666 505.88 11.0956C505.467 10.1247 505.272 9.07467 505.31 8.02007C505.28 6.94875 505.477 5.88325 505.89 4.89397C506.302 3.9047 506.919 3.01419 507.701 2.28127ZM520.851 27.1485V93.023H507.223V27.1485H520.851Z" fill="#1FBCFF"/>
<path d="M577.579 32.2293C582.294 36.2677 585.34 41.9129 586.128 48.0702H573.216C572.783 44.7186 571.148 41.6385 568.614 39.4027C566.103 37.2113 562.775 36.1153 558.63 36.1146C555.202 36.1146 552.552 36.9317 550.68 38.5658C549.746 39.3921 549.01 40.4169 548.523 41.565C548.037 42.7131 547.814 43.9555 547.871 45.201C547.833 46.1344 547.995 47.0651 548.345 47.9309C548.696 48.7968 549.227 49.5779 549.904 50.222C551.369 51.5638 553.1 52.5821 554.985 53.2108C557.831 54.1563 560.724 54.9544 563.652 55.6019C567.735 56.4674 571.751 57.6264 575.668 59.0697C578.735 60.266 581.45 62.2196 583.558 64.7484C585.749 67.3392 586.844 70.8659 586.845 75.3284C586.914 77.895 586.382 80.4421 585.293 82.7669C584.203 85.0917 582.585 87.1298 580.569 88.719C576.384 92.1467 570.745 93.8602 563.652 93.8596C555.442 93.8596 548.807 91.9468 543.747 88.1213C538.684 84.2952 535.635 78.9552 534.6 72.1013H547.87C548.029 73.8056 548.535 75.4594 549.357 76.9605C550.18 78.4616 551.301 79.7782 552.652 80.8289C555.441 83.0613 559.108 84.1772 563.651 84.1765C566.456 84.3371 569.215 83.4174 571.362 81.6065C572.275 80.7891 572.999 79.7829 573.484 78.6579C573.969 77.5328 574.204 76.3157 574.172 75.0909C574.222 74.0742 574.056 73.0584 573.685 72.1104C573.315 71.1624 572.747 70.3037 572.021 69.5909C570.47 68.1682 568.637 67.0887 566.641 66.4229C563.742 65.4661 560.787 64.6876 557.793 64.0919C553.842 63.2184 549.949 62.1004 546.137 60.7442C543.154 59.6326 540.515 57.7566 538.485 55.3042C536.373 52.7934 535.317 49.3862 535.317 45.0825C535.244 42.4895 535.772 39.9147 536.861 37.5604C537.95 35.206 539.57 33.1361 541.594 31.5132C545.778 28.0459 551.577 26.3123 558.989 26.3125C566.719 26.3118 572.916 28.284 577.579 32.2293Z" fill="#1FBCFF"/>
<path d="M600.953 2.28128C602.682 0.71667 604.96 -0.099969 607.289 0.00979065C609.635 -0.0925387 611.929 0.722086 613.686 2.28128C614.483 3.00557 615.114 3.8931 615.537 4.88342C615.96 5.87373 616.165 6.94356 616.137 8.02007C616.172 9.08001 615.971 10.1345 615.547 11.1065C615.123 12.0786 614.487 12.9437 613.686 13.6387C611.896 15.1284 609.615 15.8961 607.289 15.7911C604.981 15.9033 602.716 15.1339 600.953 13.6387C600.167 12.9348 599.545 12.0666 599.132 11.0956C598.719 10.1247 598.524 9.07468 598.562 8.02007C598.532 6.94876 598.729 5.88325 599.142 4.89398C599.554 3.9047 600.171 3.01419 600.953 2.28128ZM614.103 27.1485V93.023H600.475V27.1485H614.103Z" fill="#1FBCFF"/>
<path d="M677.946 30.3763C682.989 33.0311 687.145 37.104 689.901 42.0926C692.73 47.6685 694.204 53.833 694.204 60.0856C694.204 66.3382 692.73 72.5026 689.901 78.0785C687.146 83.0679 682.99 87.1412 677.946 89.7953C672.633 92.5559 666.717 93.9526 660.73 93.8597C654.761 93.9579 648.863 92.5607 643.573 89.7953C638.534 87.108 634.381 83.0175 631.618 78.0189C628.751 72.4654 627.254 66.306 627.254 60.0558C627.254 53.8055 628.751 47.6461 631.618 42.0926C634.396 37.1203 638.546 33.0528 643.573 30.3763C648.864 27.6114 654.761 26.214 660.73 26.3114C666.717 26.2194 672.632 27.6162 677.946 30.3763ZM651.046 40.5384C648 42.2323 645.525 44.791 643.932 47.891C642.161 51.7017 641.243 55.8533 641.243 60.0556C641.243 64.2579 642.161 68.4095 643.932 72.2201C645.536 75.2964 648.01 77.8328 651.046 79.513C654.032 81.0838 657.355 81.9046 660.73 81.9046C664.104 81.9046 667.427 81.0838 670.414 79.513C673.449 77.8325 675.923 75.2963 677.527 72.2201C679.299 68.4096 680.218 64.258 680.218 60.0556C680.218 55.8531 679.299 51.7015 677.527 47.891C675.935 44.7912 673.459 42.2326 670.414 40.5384C667.427 38.9679 664.104 38.1473 660.73 38.1473C657.356 38.1473 654.032 38.9679 651.046 40.5384Z" fill="#1FBCFF"/>
<g clip-path="url(#clip1_2155_30890)">
<path d="M3.44092 63.9919C1.90957 61.3253 3.83458 58 6.90966 58H55.7042C57.1259 58 58.4409 58.7547 59.158 59.9824L83.9848 102.482C85.5425 105.149 83.6191 108.5 80.5309 108.5H31.3156C29.8832 108.5 28.5602 107.734 27.8469 106.492L3.44092 63.9919Z" fill="#FD9D52"/>
<path d="M90.9317 9.94868C92.4751 7.29605 96.3074 7.29787 97.8483 9.95197L122.585 52.5607C123.302 53.7945 123.307 55.3166 122.598 56.555L97.7474 100.001C96.2171 102.677 92.3634 102.689 90.816 100.024L65.8653 57.0472C65.1436 55.8041 65.1444 54.2695 65.8672 53.0272L90.9317 9.94868Z" fill="white"/>
<path d="M80.6891 0.306641C83.7721 0.306641 85.6961 3.64742 84.1489 6.31407L59.4539 48.8759C58.7382 50.1093 57.4201 50.8684 55.9941 50.8684L7.14441 50.8684C4.01808 50.8684 2.10021 47.4429 3.73432 44.7777L29.8294 2.21588C30.5567 1.02968 31.8481 0.306641 33.2395 0.306642L80.6891 0.306641Z" fill="#1FBCFF"/>
</g>
<path d="M311.338 30.3763C315.922 33.1775 319.597 37.2469 321.918 42.0926C324.44 47.7558 325.744 53.886 325.744 60.0855C325.744 66.285 324.44 72.4152 321.918 78.0784C319.598 82.9247 315.923 86.9946 311.338 89.7952C306.691 92.5437 301.373 93.9506 295.975 93.8596C290.537 94.0191 285.186 92.4722 280.672 89.4359C276.529 86.5955 273.423 82.4827 271.825 77.72V93.0228H258.196V4.55273H271.825V42.4511C273.424 37.6889 276.53 33.5764 280.672 30.7348C285.187 27.6997 290.538 26.1531 295.975 26.3116C301.373 26.2214 306.691 27.6283 311.338 30.3763ZM281.509 40.9568C278.448 42.7838 275.962 45.4353 274.336 48.6082C272.605 52.176 271.706 56.09 271.706 60.0557C271.706 64.0213 272.605 67.9353 274.336 71.5032C275.975 74.6514 278.459 77.2804 281.509 79.095C284.627 80.9118 288.182 81.8418 291.791 81.7844C297.847 81.7844 302.709 79.8518 306.376 75.9866C310.041 72.1213 311.875 66.801 311.876 60.0256C311.876 53.3303 310.043 48.03 306.376 44.1248C302.709 40.2206 297.848 38.2679 291.791 38.2668C288.182 38.2093 284.627 39.1395 281.509 40.9568V40.9568Z" fill="white"/>
<path d="M762.589 33.4856C767.21 38.4286 769.521 45.4821 769.523 54.6463V93.0237H755.894V56.0813C755.894 50.1839 754.379 45.6209 751.351 42.3923C748.321 39.1643 744.176 37.5504 738.917 37.5506C733.496 37.5506 729.153 39.284 725.886 42.7506C722.616 46.218 720.982 51.299 720.984 57.9938V93.0238H707.354V27.1492H720.983V41.615C722.559 36.9037 725.676 32.8605 729.831 30.138C734.104 27.3909 739.098 25.976 744.177 26.073C751.829 26.073 757.966 28.5439 762.589 33.4856Z" fill="#1FBCFF"/>
</g>
<defs>
<clipPath id="clip0_2155_30890">
<rect width="770" height="109" fill="white"/>
</clipPath>
<clipPath id="clip1_2155_30890">
<rect width="121" height="121" fill="white" transform="translate(3 -6)"/>
</clipPath>
</defs>
</svg>
