<svg width="36" height="32" viewBox="0 0 36 32" fill="none" xmlns="http://www.w3.org/2000/svg">
<path d="M0.157816 18.8C-0.292056 18.0166 0.273466 17.0397 1.17685 17.0397H15.5115C15.9292 17.0397 16.3155 17.2614 16.5262 17.6221L23.8196 30.1075C24.2773 30.8909 23.7122 31.8754 22.805 31.8754H8.34672C7.92592 31.8754 7.53724 31.6504 7.32769 31.2854L0.157816 18.8Z" fill="#FD9D52"/>
<path d="M25.8602 2.92276C26.3136 2.14348 27.4394 2.14402 27.8921 2.92373L35.1593 15.4411C35.3697 15.8036 35.3712 16.2507 35.1631 16.6146L27.8624 29.3781C27.4129 30.164 26.2808 30.1677 25.8262 29.3846L18.4963 16.7592C18.2843 16.394 18.2845 15.9432 18.4968 15.5782L25.8602 2.92276Z" fill="#1F1F81"/>
<path d="M22.8444 0.0803223C23.7501 0.0803223 24.3153 1.06176 23.8608 1.84516L16.606 14.3488C16.3957 14.7111 16.0085 14.9342 15.5896 14.9342H1.23872C0.320282 14.9342 -0.243141 13.9278 0.236918 13.1448L7.90303 0.64121C8.11668 0.292735 8.49607 0.0803224 8.90483 0.0803224L22.8444 0.0803223Z" fill="#1FBCFF"/>
</svg>
